<?xml version="1.0" encoding="utf-8"?>
<!-- Generator: Adobe Illustrator 22.1.0, SVG Export Plug-In . SVG Version: 6.00 Build 0)  -->
<svg version="1.1" id="Layer_1" xmlns="http://www.w3.org/2000/svg" xmlns:xlink="http://www.w3.org/1999/xlink" x="0px" y="0px"
	 viewBox="0 0 1529.1 1529.1" style="enable-background:new 0 0 1529.1 1529.1;" xml:space="preserve">
<style type="text/css">
	.st0{fill:url(#SVGID_1_);}
	.st1{fill:url(#SVGID_2_);}
	.st2{fill:url(#SVGID_3_);}
	.st3{fill:url(#SVGID_4_);}
	.st4{clip-path:url(#SVGID_6_);}
	.st5{fill:url(#SVGID_7_);}
	.st6{clip-path:url(#SVGID_9_);}
	.st7{fill:url(#SVGID_10_);}
	.st8{clip-path:url(#SVGID_12_);}
	.st9{fill:url(#SVGID_13_);}
	.st10{clip-path:url(#SVGID_15_);}
	.st11{fill:url(#SVGID_16_);}
	.st12{opacity:0.5;fill:url(#SVGID_17_);enable-background:new    ;}
	.st13{opacity:0.5;fill:url(#SVGID_18_);enable-background:new    ;}
	.st14{clip-path:url(#SVGID_20_);}
	.st15{fill:url(#SVGID_21_);}
	.st16{clip-path:url(#SVGID_23_);}
	.st17{fill:url(#SVGID_24_);}
	.st18{clip-path:url(#SVGID_26_);}
	.st19{fill:url(#SVGID_27_);}
	.st20{opacity:0.15;fill:url(#SVGID_28_);enable-background:new    ;}
	.st21{clip-path:url(#SVGID_30_);}
	.st22{fill:url(#SVGID_31_);}
	.st23{opacity:0.5;fill:url(#SVGID_32_);enable-background:new    ;}
	.st24{opacity:0.5;fill:url(#SVGID_33_);enable-background:new    ;}
	.st25{opacity:0.5;fill:url(#SVGID_34_);enable-background:new    ;}
	.st26{opacity:0.5;fill:url(#SVGID_35_);enable-background:new    ;}
	.st27{opacity:0.5;fill:url(#SVGID_36_);enable-background:new    ;}
	.st28{opacity:0.5;fill:url(#SVGID_37_);enable-background:new    ;}
	.st29{opacity:0.5;fill:url(#SVGID_38_);enable-background:new    ;}
	.st30{opacity:0.5;fill:url(#SVGID_39_);enable-background:new    ;}
	.st31{opacity:0.5;fill:url(#SVGID_40_);enable-background:new    ;}
	.st32{opacity:0.5;fill:url(#SVGID_41_);enable-background:new    ;}
	.st33{opacity:0.5;fill:url(#SVGID_42_);enable-background:new    ;}
	.st34{opacity:0.5;fill:url(#SVGID_43_);enable-background:new    ;}
	.st35{fill:#194350;}
</style>
<title>PYS logo - regular(final)</title>
<linearGradient id="SVGID_1_" gradientUnits="userSpaceOnUse" x1="981" y1="-1886.4" x2="981" y2="-1886.4" gradientTransform="matrix(1 0 0 1 0 686)">
	<stop  offset="1.382212e-03" style="stop-color:#F78D26"/>
	<stop  offset="4.399443e-02" style="stop-color:#F48926"/>
	<stop  offset="0.4372" style="stop-color:#E76E26"/>
	<stop  offset="0.7698" style="stop-color:#E15E25"/>
	<stop  offset="1" style="stop-color:#DF5825"/>
</linearGradient>
<path class="st0" d="M981-1200.4L981-1200.4L981-1200.4z"/>
<linearGradient id="SVGID_2_" gradientUnits="userSpaceOnUse" x1="1121.4354" y1="14.0649" x2="1121.4354" y2="14.0649" gradientTransform="matrix(27.476 -183.1732 -183.1732 -27.476 -27274.5391 204625.6719)">
	<stop  offset="1.382212e-03" style="stop-color:#F78D26"/>
	<stop  offset="4.399443e-02" style="stop-color:#F48926"/>
	<stop  offset="0.4372" style="stop-color:#E76E26"/>
	<stop  offset="0.7698" style="stop-color:#E15E25"/>
	<stop  offset="1" style="stop-color:#DF5825"/>
</linearGradient>
<path class="st1" d="M961.7-1177.7L961.7-1177.7L961.7-1177.7z"/>
<linearGradient id="SVGID_3_" gradientUnits="userSpaceOnUse" x1="961.6" y1="-1863.6" x2="961.6" y2="-1863.6" gradientTransform="matrix(1 0 0 1 0 686)">
	<stop  offset="1.382212e-03" style="stop-color:#F78D26"/>
	<stop  offset="4.399443e-02" style="stop-color:#F48926"/>
	<stop  offset="0.4372" style="stop-color:#E76E26"/>
	<stop  offset="0.7698" style="stop-color:#E15E25"/>
	<stop  offset="1" style="stop-color:#DF5825"/>
</linearGradient>
<path class="st2" d="M961.6-1177.6L961.6-1177.6L961.6-1177.6z"/>
<linearGradient id="SVGID_4_" gradientUnits="userSpaceOnUse" x1="965.3" y1="-1881.5" x2="965.3" y2="-1881.5" gradientTransform="matrix(1 0 0 1 0 686)">
	<stop  offset="1.382212e-03" style="stop-color:#F78D26"/>
	<stop  offset="4.399443e-02" style="stop-color:#F48926"/>
	<stop  offset="0.4372" style="stop-color:#E76E26"/>
	<stop  offset="0.7698" style="stop-color:#E15E25"/>
	<stop  offset="1" style="stop-color:#DF5825"/>
</linearGradient>
<path class="st3" d="M965.3-1195.5L965.3-1195.5L965.3-1195.5z"/>
<g>
	<g>
		<g>
			<defs>
				<path id="SVGID_5_" d="M509.4,719.1c-16,1-30.9,8.4-41.4,20.5c-5.3,6-9.9,12.6-15,18.8c-5.1,6.2-10.5,11.6-18,14.7
					c-10.6,4.4-21,3.3-31.2-1.3c-5.3-2.4-10.4-5-15.8-7.1c-6.9-2.7-14.1-4.1-21.5-2.1c0,0,17.1,11.2,24.8,17.3
					c6.2,5.1,12.9,9.5,20,13.2c9.8,4.9,20,7.1,31.1,5.5c11.5-1.8,21.2-7.1,30.4-13.6c5.8-4.1,11.2-9,17.2-12.8
					c11.3-7.1,20-6.9,30.6,1.2c4.1,3.1,8,6.4,11.8,9.8c8.7,8,19.3,13.7,30.7,16.6c2.1,0.6,4.2,1.1,6.3,1.5
					c-2.7-13.1-4.1-26.4-4.1-39.7c0-9.4,0.7-18.7,2-28c-6-0.8-11.7-3-16.6-6.6c-4.5-3.1-9.6-5.3-15-6.2c-6-1.2-12-1.7-18.1-1.7
					C514.9,718.8,512.1,718.8,509.4,719.1"/>
			</defs>
			<clipPath id="SVGID_6_">
				<use xlink:href="#SVGID_5_"  style="overflow:visible;"/>
			</clipPath>
			<g class="st4">
				
					<linearGradient id="SVGID_7_" gradientUnits="userSpaceOnUse" x1="2048.8843" y1="28.5634" x2="2047.5643" y2="30.2233" gradientTransform="matrix(13.04 -86.97 -86.97 -13.04 -23695.0527 179283.3438)">
					<stop  offset="0" style="stop-color:#FCB935"/>
					<stop  offset="1" style="stop-color:#F37128"/>
				</linearGradient>
				<polygon class="st5" points="354.5,799.2 371,689 581.6,720.6 565,830.8 				"/>
			</g>
		</g>
	</g>
	<g>
		<g>
			<defs>
				<path id="SVGID_8_" d="M432.8,593.4c2.8,7.5,6.4,14.6,10.7,21.4c6,9.2,13.8,16.2,24.2,20.3c10.8,4.2,21.9,4.5,33.2,3.4
					c7.1-0.6,14.1-2.2,21.3-2.5c13.3-0.5,20.7,4,25.9,16.3c2,4.7,3.7,9.5,5.3,14.4c3.5,11.3,9.8,21.5,18.2,29.7
					c1.2,1.2,2.4,2.4,3.7,3.5c7.1-21.6,18-41.7,32.2-59.5c-4.4-3.5-7.9-8.1-10.1-13.3c-2.3-5-5.7-9.4-9.9-12.9
					c-6.7-5.8-14.2-10.7-22.2-14.5c-14.3-7.2-31-8.2-46.1-2.9c-7.6,2.5-14.9,5.9-22.3,8.8c-7.4,2.9-14.9,4.7-22.9,3.7
					c-11.4-1.5-19.8-7.6-26.4-16.7c-3.4-4.7-6.5-9.6-10.1-14.1c-4.6-5.8-10.1-10.6-17.5-12.6C419.9,566,429.1,584.2,432.8,593.4"/>
			</defs>
			<clipPath id="SVGID_9_">
				<use xlink:href="#SVGID_8_"  style="overflow:visible;"/>
			</clipPath>
			<g class="st6">
				
					<linearGradient id="SVGID_10_" gradientUnits="userSpaceOnUse" x1="2048.0239" y1="25.7936" x2="2049.2542" y2="26.7736" gradientTransform="matrix(15.33 -102.17 -102.17 -15.33 -28205.291 210347.5)">
					<stop  offset="0" style="stop-color:#FCB935"/>
					<stop  offset="0.2418" style="stop-color:#FDB720"/>
					<stop  offset="0.5465" style="stop-color:#F89B25"/>
					<stop  offset="0.77" style="stop-color:#F58527"/>
					<stop  offset="1" style="stop-color:#F37128"/>
				</linearGradient>
				<polygon class="st7" points="400.3,697.1 424.1,538.5 627.2,569 603.4,727.6 				"/>
			</g>
		</g>
	</g>
	<g>
		<g>
			<defs>
				<path id="SVGID_11_" d="M561.3,452.5c-1.3,7.9-1.8,15.9-1.4,23.9c0.6,11,3.8,20.9,10.8,29.7c7.2,9.1,16.7,14.9,27,19.6
					c6.5,3,13.3,5.2,19.7,8.5c11.8,6.2,15.9,13.9,14.2,27.1c-0.7,5-1.5,10.1-2.6,15.1c-2.6,11.5-2.3,23.5,0.9,34.9
					c0.4,1.5,0.8,2.9,1.3,4.4c17-15,36.6-27,57.7-35.3c-1.9-5.2-2.6-10.7-2-16.2c0.5-5.5-0.2-11-2.1-16.1c-2.9-8.4-6.9-16.3-12-23.6
					c-9.4-13.8-22.1-22.2-38.4-25.6c-7.8-1.6-15.8-2.3-23.7-3.6s-15.3-3.4-21.7-8.3c-9.1-7-13.3-16.5-14.4-27.7
					c-0.6-5.8-0.8-11.6-1.7-17.3c-1.1-7.3-3.5-14.2-8.9-19.7C563.9,422.3,562.8,442.7,561.3,452.5"/>
			</defs>
			<clipPath id="SVGID_12_">
				<use xlink:href="#SVGID_11_"  style="overflow:visible;"/>
			</clipPath>
			<g class="st8">
				
					<linearGradient id="SVGID_13_" gradientUnits="userSpaceOnUse" x1="2048.7275" y1="19.44" x2="2049.7275" y2="19.44" gradientTransform="matrix(25.36 -169.07 -169.07 -25.36 -48058.3047 347479.9375)">
					<stop  offset="0" style="stop-color:#FCB935"/>
					<stop  offset="0.2052" style="stop-color:#FBB233"/>
					<stop  offset="0.5052" style="stop-color:#F99E2E"/>
					<stop  offset="0.5348" style="stop-color:#F99C2D"/>
					<stop  offset="1" style="stop-color:#F37128"/>
				</linearGradient>
				<polygon class="st9" points="531.1,611.4 562.3,403.3 717.2,426.6 686,634.6 				"/>
			</g>
		</g>
	</g>
	<g>
		<g>
			<defs>
				<path id="SVGID_14_" d="M743.2,394.8c-5.1,6.2-9.5,12.9-13.2,20c-4.9,9.8-7.2,20-5.5,31.1c1.7,11.5,7,21.2,13.6,30.5
					c4.1,5.9,8.9,11.2,12.8,17.2c7.1,11.3,6.9,20-1.2,30.6c-3.1,4-6.4,8-9.8,11.7c-8,8.7-13.8,19.2-16.7,30.6
					c-0.4,1.4-0.7,2.7-1,4.1c22.3-4.4,45.2-4.9,67.6-1.4c0.9-5.4,3.1-10.6,6.4-15c3.1-4.5,5.3-9.6,6.2-15c1.7-8.7,2.2-17.6,1.5-26.4
					c-1.2-16.6-8-30.3-20.4-41.4c-6-5.4-12.6-9.9-18.7-15s-11.5-10.6-14.7-18c-4.4-10.6-3.3-21,1.4-31.2c2.4-5.3,5-10.4,7.1-15.8
					c2.7-6.9,4.1-14.1,2.2-21.5C760.5,370,749.3,387.1,743.2,394.8"/>
			</defs>
			<clipPath id="SVGID_15_">
				<use xlink:href="#SVGID_14_"  style="overflow:visible;"/>
			</clipPath>
			<g class="st10">
				
					<linearGradient id="SVGID_16_" gradientUnits="userSpaceOnUse" x1="2048.8281" y1="18.2921" x2="2049.8281" y2="18.2921" gradientTransform="matrix(28.58 -190.52 -190.52 -28.58 -54321.3633 391429.375)">
					<stop  offset="0" style="stop-color:#FCB935"/>
					<stop  offset="1" style="stop-color:#F37128"/>
				</linearGradient>
				<polygon class="st11" points="692.6,566.3 723.8,358 833.7,374.4 802.5,582.8 				"/>
			</g>
		</g>
	</g>
	
		<linearGradient id="SVGID_17_" gradientUnits="userSpaceOnUse" x1="2048.8286" y1="18.3489" x2="2049.8284" y2="18.3489" gradientTransform="matrix(28.58 -190.52 -190.52 -28.58 -54321.3633 391429.375)">
		<stop  offset="0" style="stop-color:#F78D26"/>
		<stop  offset="4.000000e-02" style="stop-color:#F48926"/>
		<stop  offset="0.44" style="stop-color:#E76E26"/>
		<stop  offset="0.77" style="stop-color:#E15E25"/>
		<stop  offset="1" style="stop-color:#DF5825"/>
	</linearGradient>
	<path class="st12" d="M750.2,541.1c10.7-14,12.1-25.7,4.5-40c2.8,7.9,1.2,14.9-5,23.1c-3.1,4-6.5,7.9-9.9,11.6
		c-8,8.6-13.7,19.2-16.6,30.6c-0.4,1.4-0.7,2.7-1,4.1c1.5-0.3,3-0.6,4.5-0.8c2.8-4.1,5.9-8,9.3-11.7
		C741,552.6,745.7,546.9,750.2,541.1z"/>
	
		<linearGradient id="SVGID_18_" gradientUnits="userSpaceOnUse" x1="2048.8293" y1="18.2706" x2="2049.8293" y2="18.2706" gradientTransform="matrix(28.58 -190.52 -190.52 -28.58 -54321.3633 391429.375)">
		<stop  offset="0" style="stop-color:#F78D26"/>
		<stop  offset="4.000000e-02" style="stop-color:#F48926"/>
		<stop  offset="0.44" style="stop-color:#E76E26"/>
		<stop  offset="0.77" style="stop-color:#E15E25"/>
		<stop  offset="1" style="stop-color:#DF5825"/>
	</linearGradient>
	<path class="st13" d="M741.1,436.3c4.2,10,11.5,17.5,19.6,24.2c8.3,6.8,17.1,12.9,25.1,20.1c6,5.3,11.3,11.4,15.6,18.2
		c-3.3-10.6-9.5-20.1-17.9-27.4c-6-5.4-12.6-9.9-18.7-15s-11.5-10.6-14.7-18c-4.4-10.6-3.3-21,1.4-31.2c2.4-5.3,5-10.4,7.1-15.8
		c2.7-6.9,4.1-14.1,2.2-21.5c0,0-11.2,17.1-17.3,24.8c-0.4,0.6-0.9,1.1-1.3,1.7C736.6,409.4,735.5,422.7,741.1,436.3z"/>
	<g>
		<g>
			<defs>
				<path id="SVGID_19_" d="M929.5,436c-7.5,2.9-14.7,6.4-21.5,10.7c-9.2,6-16.2,13.7-20.4,24.2c-4.3,10.8-4.5,21.9-3.5,33.2
					c0.6,7.1,2.1,14.1,2.4,21.3c0.5,13.3-4.1,20.7-16.4,25.9c-4.7,2-9.5,3.7-14.4,5.2c-11.3,3.5-21.5,9.8-29.8,18.2c-1,1-2,2-3,3.1
					c21.4,7.4,41.4,18.5,59,32.8c3.6-4.3,8.1-7.7,13.2-10c5-2.3,9.4-5.6,12.9-9.8c5.8-6.7,10.7-14.1,14.5-22.1
					c7.3-15,8.2-30.2,3-46.1c-2.5-7.6-5.9-14.9-8.7-22.4s-4.7-14.9-3.7-23c1.5-11.4,7.7-19.8,16.8-26.3c4.7-3.4,9.6-6.5,14.1-10.1
					c5.8-4.6,10.6-10.1,12.6-17.5C956.9,423.2,938.7,432.3,929.5,436"/>
			</defs>
			<clipPath id="SVGID_20_">
				<use xlink:href="#SVGID_19_"  style="overflow:visible;"/>
			</clipPath>
			<g class="st14">
				
					<linearGradient id="SVGID_21_" gradientUnits="userSpaceOnUse" x1="2048.791" y1="18.6541" x2="2049.791" y2="18.6541" gradientTransform="matrix(27.48 -183.17 -183.17 -27.48 -52006.8594 376392.4375)">
					<stop  offset="0" style="stop-color:#FCB935"/>
					<stop  offset="1" style="stop-color:#F37128"/>
				</linearGradient>
				<polygon class="st15" points="795.6,606.3 826,403.5 984.3,427.3 953.9,630.1 				"/>
			</g>
		</g>
	</g>
	<g>
		<g>
			<defs>
				<path id="SVGID_22_" d="M1046.2,563.3c-11,0.6-20.9,3.8-29.7,10.7c-9.1,7.2-14.9,16.7-19.6,27c-3,6.5-5.2,13.3-8.6,19.6
					c-6.2,11.8-13.9,15.9-27.1,14.2c-5-0.7-10.1-1.5-15.1-2.7c-11.5-2.6-23.5-2.3-34.9,0.8c-1.5,0.4-3,0.8-4.5,1.3
					c14.8,17.2,26.6,36.8,34.6,58c5.4-2,11.2-2.8,16.9-2.2c5.5,0.5,11-0.2,16.1-2.1c8.4-2.9,16.3-6.9,23.6-11.9
					c13.8-9.4,22.3-22,25.7-38.4c1.7-7.8,2.3-15.8,3.7-23.7s3.4-15.3,8.3-21.7c7-9.1,16.6-13.3,27.7-14.4c5.8-0.6,11.6-0.8,17.3-1.7
					c7.3-1.1,14.2-3.5,19.7-8.8c0,0-20.4-1.2-30.1-2.6c-6.4-1-12.8-1.5-19.2-1.6C1049.3,563.2,1047.8,563.2,1046.2,563.3"/>
			</defs>
			<clipPath id="SVGID_23_">
				<use xlink:href="#SVGID_22_"  style="overflow:visible;"/>
			</clipPath>
			<g class="st16">
				
					<linearGradient id="SVGID_24_" gradientUnits="userSpaceOnUse" x1="2048.3884" y1="22.2939" x2="2049.6785" y2="21.3339" gradientTransform="matrix(20.58 -137.2 -137.2 -20.58 -38167.4883 282198.8438)">
					<stop  offset="0" style="stop-color:#FCB935"/>
					<stop  offset="0.359" style="stop-color:#FAA324"/>
					<stop  offset="0.66" style="stop-color:#F68927"/>
					<stop  offset="1" style="stop-color:#F37128"/>
				</linearGradient>
				<polygon class="st17" points="887.8,689.4 911,534.8 1119.2,566 1096,720.7 				"/>
			</g>
		</g>
	</g>
	<g>
		<g>
			<defs>
				<path id="SVGID_25_" d="M590.3,760.8c0,13.6,1.6,27.2,4.9,40.4h326.7c22.3-90.2-32.8-181.4-123-203.7s-181.4,32.8-203.7,123
					C592,733.7,590.3,747.2,590.3,760.8"/>
			</defs>
			<clipPath id="SVGID_26_">
				<use xlink:href="#SVGID_25_"  style="overflow:visible;"/>
			</clipPath>
			<g class="st18">
				
					<radialGradient id="SVGID_27_" cx="2036.8076" cy="9.8407" r="1" gradientTransform="matrix(139.98 0 0 -139.98 -284352.3125 2074.7097)" gradientUnits="userSpaceOnUse">
					<stop  offset="0" style="stop-color:#FFCE33"/>
					<stop  offset="1" style="stop-color:#FCB720"/>
				</radialGradient>
				<rect x="590.3" y="592.6" class="st19" width="336.5" height="208.7"/>
			</g>
		</g>
	</g>
	
		<linearGradient id="SVGID_28_" gradientUnits="userSpaceOnUse" x1="2036.3639" y1="8.6768" x2="2037.3636" y2="10.4164" gradientTransform="matrix(139.98 0 0 -139.98 -284352.3125 2074.7097)">
		<stop  offset="0" style="stop-color:#F78D26"/>
		<stop  offset="4.000000e-02" style="stop-color:#F48926"/>
		<stop  offset="0.44" style="stop-color:#E76E26"/>
		<stop  offset="0.77" style="stop-color:#E15E25"/>
		<stop  offset="1" style="stop-color:#DF5825"/>
	</linearGradient>
	<path class="st20" d="M922.1,801.2c3.3-13.2,4.9-26.8,4.9-40.4l0,0c0-47.6-20.1-92.9-55.4-124.8c30.3,30.1,47.4,71,47.3,113.7l0,0
		c0,13-1.6,25.9-4.7,38.5H603.3c-3.1-12.6-4.7-25.5-4.7-38.5c0-42.7,17-83.6,47.3-113.7c-45.9,41.6-65.3,105-50.5,165.2H922.1z"/>
	<g>
		<g>
			<defs>
				<path id="SVGID_29_" d="M953.9,761.3c0,10.5-0.9,20.9-2.5,31.3c5.9,0.8,11.5,3.1,16.3,6.7c4.5,3.2,9.6,5.3,15,6.3
					c8.7,1.7,17.6,2.2,26.4,1.5c16.6-1.2,30.3-7.9,41.5-20.3c5.4-6,9.9-12.5,15-18.7s10.6-11.5,18.1-14.6c10.6-4.4,21-3.2,31.2,1.4
					c5.3,2.4,10.4,5.1,15.8,7.2c6.9,2.7,14,4.1,21.5,2.2c0,0-17-11.2-24.8-17.4c-6.2-5.1-12.9-9.5-20-13.3c-9.8-5-20-7.2-31.1-5.6
					c-11.5,1.7-21.2,7-30.5,13.5c-5.9,4.1-11.2,8.9-17.3,12.7c-11.3,7.1-20,6.8-30.6-1.3c-4-3.1-7.9-6.4-11.7-9.9
					c-8.7-8-19.2-13.8-30.6-16.7c-1.7-0.5-3.4-0.9-5.1-1.2C952.8,737,953.9,749.2,953.9,761.3"/>
			</defs>
			<clipPath id="SVGID_30_">
				<use xlink:href="#SVGID_29_"  style="overflow:visible;"/>
			</clipPath>
			<g class="st21">
				
					<linearGradient id="SVGID_31_" gradientUnits="userSpaceOnUse" x1="2047.7366" y1="30.1871" x2="2049.0466" y2="28.5372" gradientTransform="matrix(12.99 -86.6 -86.6 -12.99 -23013.998 178538.1406)">
					<stop  offset="0" style="stop-color:#FCB935"/>
					<stop  offset="0.272" style="stop-color:#FCB31E"/>
					<stop  offset="0.5872" style="stop-color:#F79126"/>
					<stop  offset="0.84" style="stop-color:#F37128"/>
					<stop  offset="1" style="stop-color:#F37128"/>
				</linearGradient>
				<polygon class="st22" points="938.4,805.8 955,695.4 1164.3,726.8 1147.7,837.2 				"/>
			</g>
		</g>
	</g>
	
		<linearGradient id="SVGID_32_" gradientUnits="userSpaceOnUse" x1="2062.1567" y1="13.2513" x2="2063.167" y2="13.2513" gradientTransform="matrix(-190.48 -28.85 -28.85 190.48 393742.125 57754.0469)">
		<stop  offset="0" style="stop-color:#F78D26"/>
		<stop  offset="4.000000e-02" style="stop-color:#F48926"/>
		<stop  offset="0.44" style="stop-color:#E76E26"/>
		<stop  offset="0.77" style="stop-color:#E15E25"/>
		<stop  offset="1" style="stop-color:#DF5825"/>
	</linearGradient>
	<path class="st23" d="M539.6,773.5c-14.2-10.8-26-13.2-40.5-5.6c7.8-2.4,14.7,0,23.1,6.7c4,3.2,7.9,6.6,11.8,10
		c9,7.7,19.2,12.9,31.2,15.8l4.2,0.9c-0.2-0.8-0.6-3.2-0.9-4.8c-4.1-2.8-8-5.2-11.8-8.7C551.3,782.9,545.6,778.1,539.6,773.5z"/>
	
		<linearGradient id="SVGID_33_" gradientUnits="userSpaceOnUse" x1="2062.157" y1="13.1728" x2="2063.167" y2="13.1728" gradientTransform="matrix(-190.48 -28.85 -28.85 190.48 393742.125 57754.0469)">
		<stop  offset="0" style="stop-color:#F78D26"/>
		<stop  offset="4.000000e-02" style="stop-color:#F48926"/>
		<stop  offset="0.44" style="stop-color:#E76E26"/>
		<stop  offset="0.77" style="stop-color:#E15E25"/>
		<stop  offset="1" style="stop-color:#DF5825"/>
	</linearGradient>
	<path class="st24" d="M433.7,782.1c10.1-4.2,17.7-11.6,24.5-19.8s13.1-17.3,20.4-25.3c5.3-6.1,11.5-11.4,18.4-15.7
		c-10.8,3.2-20.6,9.3-28.3,17.6c-5.6,6-10.1,12.8-15.3,19.1c-5.2,6.3-10.2,11.6-17.7,14.9c-10.8,4.7-21.4,3.7-31.6-0.8
		c-5.3-2.4-10.6-5.1-16.1-7.2c-7-2.7-14-4.1-21.6-2.2c0,0,16.9,11,24.7,17.2c0.6,0.4,1.1,0.9,1.7,1.3
		C406.2,786.6,420,787.7,433.7,782.1z"/>
	
		<linearGradient id="SVGID_34_" gradientUnits="userSpaceOnUse" x1="2059.5181" y1="16.8969" x2="2060.5281" y2="16.8969" gradientTransform="matrix(-150.93 -119.73 -119.73 150.93 313442.2188 244717.9062)">
		<stop  offset="0" style="stop-color:#F78D26"/>
		<stop  offset="4.000000e-02" style="stop-color:#F48926"/>
		<stop  offset="0.44" style="stop-color:#E76E26"/>
		<stop  offset="0.77" style="stop-color:#E15E25"/>
		<stop  offset="1" style="stop-color:#DF5825"/>
	</linearGradient>
	<path class="st25" d="M563.1,661.1c-6.9-16.4-16.2-24-32.6-24.5c8.4,1.6,13.5,6.5,17.8,16.4c2.3,5.2,5,13.8,5.4,15
		c0.3,1,0.6,1.8,1,2.8c3.8,9.9,9.7,18.8,17.3,26.2c0.9,0.9,2.2,2.1,3.2,3.1c0.3-0.8,1-2.9,1.5-4.3c-2.2-4.5-4.4-8.6-6-13.5
		C568.6,675.1,566,668,563.1,661.1z"/>
	
		<linearGradient id="SVGID_35_" gradientUnits="userSpaceOnUse" x1="2059.5081" y1="16.8158" x2="2060.5181" y2="16.8158" gradientTransform="matrix(-150.93 -119.73 -119.73 150.93 313442.2188 244717.9062)">
		<stop  offset="0" style="stop-color:#F78D26"/>
		<stop  offset="4.000000e-02" style="stop-color:#F48926"/>
		<stop  offset="0.44" style="stop-color:#E76E26"/>
		<stop  offset="0.77" style="stop-color:#E15E25"/>
		<stop  offset="1" style="stop-color:#DF5825"/>
	</linearGradient>
	<path class="st26" d="M468.5,616.4c10.9,1.4,21.1-1.2,31.1-5s19.9-8.5,30.3-11.9c7.7-2.4,15.7-3.8,23.8-3.9
		c-10.9-2.8-21.4-2.6-33.3,1.1c-7.9,2.4-15.9,6.3-23.5,9.1c-7.6,2.8-14.3,4.6-22,3.8c-11.7-1.2-20.5-7.6-27.1-16.6
		c-0.8-1.1-1.5-2.2-2.4-3.4c-0.9-1.2-1.5-2.2-2.3-3.4c-1.8-2.6-3.7-5.2-5.6-7.6c-4.7-5.8-10.1-10.5-17.6-12.6
		c0,0,9.2,18.1,12.9,27.4c0.3,0.7,0.4,1.1,0.7,1.8C442.2,606.6,453.7,614.5,468.5,616.4z"/>
	
		<linearGradient id="SVGID_36_" gradientUnits="userSpaceOnUse" x1="2053.7695" y1="18.987" x2="2054.7695" y2="18.987" gradientTransform="matrix(-71.16 -179.03 -179.03 71.16 150185.875 366933.9375)">
		<stop  offset="0" style="stop-color:#F78D26"/>
		<stop  offset="4.000000e-02" style="stop-color:#F48926"/>
		<stop  offset="0.44" style="stop-color:#E76E26"/>
		<stop  offset="0.77" style="stop-color:#E15E25"/>
		<stop  offset="1" style="stop-color:#DF5825"/>
	</linearGradient>
	<path class="st27" d="M640.6,576c2.2-17.5-2.2-28.4-15.9-36.9c6.5,5.6,8.2,12.3,7,22.4c-0.6,5-1.6,10.3-2.7,15.2
		c-2.5,11.5-2.2,23.5,1,34.9c0.4,1.4,0.8,2.7,1.2,4.1c1.1-1,2.3-2,3.5-3c0.4-5,1.1-9.9,2.2-14.8C638.4,590.6,639.6,583.3,640.6,576z
		"/>
	
		<linearGradient id="SVGID_37_" gradientUnits="userSpaceOnUse" x1="2053.7695" y1="18.9083" x2="2054.7695" y2="18.9083" gradientTransform="matrix(-71.16 -179.03 -179.03 71.16 150185.875 366933.9375)">
		<stop  offset="0" style="stop-color:#F78D26"/>
		<stop  offset="4.000000e-02" style="stop-color:#F48926"/>
		<stop  offset="0.44" style="stop-color:#E76E26"/>
		<stop  offset="0.77" style="stop-color:#E15E25"/>
		<stop  offset="1" style="stop-color:#DF5825"/>
	</linearGradient>
	<path class="st28" d="M580.3,489.7c8.6,6.5,18.7,9.3,29.1,11c10.6,1.7,21.2,2.8,31.7,4.9c7.7,1.5,15.2,4.1,22.2,7.8
		c-8-7.5-17.6-12.1-28.8-14.5c-7.8-1.7-16-2.3-23.9-3.6s-15.3-3.4-21.7-8.3c-9.1-7-13.3-16.5-14.4-27.7c-0.6-5.7-0.8-11.6-1.7-17.3
		c-1.2-7.3-3.5-14.2-8.9-19.7c0,0-1.2,20.4-2.6,30.2l-0.3,2.1C562.9,468.7,568.6,480.8,580.3,489.7z"/>
	
		<linearGradient id="SVGID_38_" gradientUnits="userSpaceOnUse" x1="2044.4435" y1="14.8667" x2="2045.4435" y2="14.8667" gradientTransform="matrix(120.31 -150.47 -150.47 -120.31 -242887.7812 309993.1562)">
		<stop  offset="0" style="stop-color:#F78D26"/>
		<stop  offset="4.000000e-02" style="stop-color:#F48926"/>
		<stop  offset="0.44" style="stop-color:#E76E26"/>
		<stop  offset="0.77" style="stop-color:#E15E25"/>
		<stop  offset="1" style="stop-color:#DF5825"/>
	</linearGradient>
	<path class="st29" d="M862.2,566.1c16.3-6.8,23.2-16.2,23.8-32.4c-1.5,8.3-6.4,13.5-15.9,17.4c-4.7,2-9.5,3.7-14.4,5.2
		c-11.3,3.5-21.5,9.8-29.8,18.2c-1,1-2,2.1-2.9,3.1c1.4,0.5,2.8,1,4.3,1.5c4.5-2.2,9.2-4,14-5.5C848.4,571.5,855.4,569,862.2,566.1z
		"/>
	
		<linearGradient id="SVGID_39_" gradientUnits="userSpaceOnUse" x1="2044.4525" y1="14.7907" x2="2045.4425" y2="14.7907" gradientTransform="matrix(120.31 -150.47 -150.47 -120.31 -242887.7812 309993.1562)">
		<stop  offset="0" style="stop-color:#F78D26"/>
		<stop  offset="4.000000e-02" style="stop-color:#F48926"/>
		<stop  offset="0.44" style="stop-color:#E76E26"/>
		<stop  offset="0.77" style="stop-color:#E15E25"/>
		<stop  offset="1" style="stop-color:#DF5825"/>
	</linearGradient>
	<path class="st30" d="M906.1,470.8c-1.4,10.7,1.1,20.8,4.9,30.8s8.3,19.7,11.6,30c2.6,7.6,4.2,15.6,4.6,23.6
		c2.5-10.8,1.9-22.1-1.8-32.6c-2.5-7.6-5.9-14.9-8.7-22.4s-4.7-14.9-3.6-22.9c1.5-11.4,7.6-19.7,16.7-26.3
		c4.7-3.4,9.6-6.5,14.1-10.1c5.8-4.6,10.6-10.2,12.7-17.6c0,0-18.3,9.2-27.5,12.8c-0.7,0.3-1.5,0.6-2.1,0.8
		C915.6,445.4,908.1,456.2,906.1,470.8z"/>
	
		<linearGradient id="SVGID_40_" gradientUnits="userSpaceOnUse" x1="2041.9319" y1="9.5831" x2="2042.9319" y2="9.5831" gradientTransform="matrix(179.91 -68.89 -68.89 -179.91 -365784.875 143037.8594)">
		<stop  offset="0" style="stop-color:#F78D26"/>
		<stop  offset="4.000000e-02" style="stop-color:#F48926"/>
		<stop  offset="0.44" style="stop-color:#E76E26"/>
		<stop  offset="0.77" style="stop-color:#E15E25"/>
		<stop  offset="1" style="stop-color:#DF5825"/>
	</linearGradient>
	<path class="st31" d="M946.6,643.6c17.5,2.4,28.2-2.3,37-15.9c-5.5,6.4-12.4,8.4-22.5,7c-5-0.7-10.1-1.5-15.1-2.6
		c-7-1.6-14.2-2.1-21.3-1.5c-4.5,0.4-9,1.2-13.4,2.3c-1.4,0.4-3.2,0.9-4.5,1.3l2.6,3.1c5.2,0.3,10.3,1.1,15.4,2.2
		C932,641.3,939.3,642.6,946.6,643.6z"/>
	
		<linearGradient id="SVGID_41_" gradientUnits="userSpaceOnUse" x1="2041.9391" y1="9.5785" x2="2042.9391" y2="9.5785" gradientTransform="matrix(179.56 -69.81 -69.81 -179.56 -365053.75 144925.0469)">
		<stop  offset="0" style="stop-color:#F78D26"/>
		<stop  offset="4.000000e-02" style="stop-color:#F48926"/>
		<stop  offset="0.44" style="stop-color:#E76E26"/>
		<stop  offset="0.77" style="stop-color:#E15E25"/>
		<stop  offset="1" style="stop-color:#DF5825"/>
	</linearGradient>
	<path class="st32" d="M1032.7,583.3c-6.6,8.6-9.5,18.6-11.2,29c-1.8,10.6-2.7,21.2-5,31.7c-1.5,7.9-4.1,15.6-7.7,22.8
		c7.6-8.2,12.7-18.3,14.8-29.2c1.7-7.8,2.3-15.9,3.7-23.8s3.4-15.2,8.3-21.6c7-9.1,16.4-13.3,27.6-14.3c2.1-0.2,4.1-0.4,6.2-0.5
		c3.7-0.3,7.4-0.6,11.1-1.1c7.3-1.1,14.3-3.5,19.8-8.9c0,0-20.5-1.2-30.2-2.7c-0.7-0.1-1.7-0.2-2.4-0.3
		C1053.5,566.2,1041.7,571.7,1032.7,583.3z"/>
	
		<linearGradient id="SVGID_42_" gradientUnits="userSpaceOnUse" x1="2041.4474" y1="4.5435" x2="2042.4474" y2="4.5435" gradientTransform="matrix(190.52 28.58 28.58 -190.52 -388107.0938 -56737.6445)">
		<stop  offset="0" style="stop-color:#F78D26"/>
		<stop  offset="4.000000e-02" style="stop-color:#F48926"/>
		<stop  offset="0.44" style="stop-color:#E76E26"/>
		<stop  offset="0.77" style="stop-color:#E15E25"/>
		<stop  offset="1" style="stop-color:#DF5825"/>
	</linearGradient>
	<path class="st33" d="M980.1,753.1c14,10.7,25.8,12.6,40.1,5c-8.3,2.6-15,0.3-23.2-6c-4-3.1-7.8-6.5-11.6-9.9
		c-8.8-7.8-19.4-13.4-30.8-16.3c-1.4-0.4-2.8-0.7-4.1-1c0.3,1.5,0.5,3,0.8,4.5c4.1,2.8,8,5.9,11.7,9.3
		C968.4,743.8,974.1,748.6,980.1,753.1z"/>
	
		<linearGradient id="SVGID_43_" gradientUnits="userSpaceOnUse" x1="2041.4474" y1="4.4644" x2="2042.4474" y2="4.4644" gradientTransform="matrix(190.52 28.58 28.58 -190.52 -388107.0938 -56737.6445)">
		<stop  offset="0" style="stop-color:#F78D26"/>
		<stop  offset="4.000000e-02" style="stop-color:#F48926"/>
		<stop  offset="0.44" style="stop-color:#E76E26"/>
		<stop  offset="0.77" style="stop-color:#E15E25"/>
		<stop  offset="1" style="stop-color:#DF5825"/>
	</linearGradient>
	<path class="st34" d="M1085.7,744.4c-10,4.2-17.5,11.5-24.2,19.6c-6.8,8.3-12.9,17.1-20.1,25.1c-5.3,6-11.5,11.2-18.3,15.4
		c10.6-3.2,20.1-9.4,27.4-17.8c5.4-6,9.9-12.5,15-18.7s10.7-11.6,18.1-14.7c10.6-4.3,21-3.3,31.2,1.4c5.1,2.3,10.4,5.1,15.8,7.2
		c6.7,2.6,13.9,4.1,21.5,2.2c0,0-17.1-11.3-24.8-17.4c-0.6-0.4-1.1-0.9-1.7-1.3C1112.6,739.9,1099.3,738.8,1085.7,744.4z"/>
	<path class="st35" d="M732.6,708.4c-3.3,15-12,27-21,39c2.6,1.2,4-0.7,5.7-1.4c4.8-2.2,9.1-5.8,14.3-6.5c5.4-0.7,10.1,2.7,14.6,5.1
		c8.6,4.5,16.8,5.3,25.2-0.3c0.9-0.5,1.8-0.9,2.7-1.2c12.2-5.1,8.4-5.6,21.6,0.4c3.3,1.5,6.2,4,10.2,4.5c0.1-1.8-1-2.6-1.8-3.5
		c-4.4-5.5-8.5-11.2-12.1-17.2c-7.2-11.9-8.5-24.9-8-38.3c0.2-5,0.6-10.1,1-15.4c4.2,0,6.6,2.7,8.7,6.1c3.2,5.2,3.5,11.1,4.3,16.8
		c1.7,11.4,4.7,22.5,10,32.8c3,5.7,6.1,11.3,9.3,16.9c1.3,2.4,2.8,4.4,5.7,5.5c4.1,1.6,5.5,5.4,5.6,9.5c0.1,3.9-1.6,6.7-5.5,8
		c-0.9,0.3-1.8,0.8-2.4,1.6c-4.7,5.7-11,5.9-17.6,5.5c-10.8-0.6-21.2-3-31.6-5.7c-8.5-2.3-17.4-2.3-25.9,0.1
		c-10.9,3-21.9,5.5-33.3,5.5c-6,0-11.7-0.4-15.8-5.7c-0.7-0.7-1.6-1.2-2.5-1.5c-3.3-1.5-5.5-3.8-5.3-7.6c0.3-4,1.3-7.8,5.5-9.6
		c2.1-0.9,4-2.4,5.2-4.4c8.4-13.9,16-28.1,18.9-44.4c0.8-4.2,1.3-8.5,1.9-12.7c1.3-9.8,5.5-17,16.1-18.8c1.9-0.3,3.8-1,5.5-1.9
		c2.5-1.2,6.1-1.2,6.7-4.8c0.7-4.6,0.5-9.5-3.1-12.5c-0.8-0.6-2.1-1-2.5-1.7c-1.4-2.2-2.6-8.8-1.8-9.1c4.2-1.4,2.6-6.1,3.8-9.1
		c2.1-5,5.5-7.9,10.9-8.4c1.2-0.1,2.3-0.1,3.5-0.1c8.3,0.1,12.6,3.6,14.3,11.8c0.4,1.9-0.4,4.4,2.5,5.3c1,0.3,0.8,1.7,0.5,2.6
		c-1,3.1-1.1,6.5-4.2,8.7c-1.9,1.4-3,3.7-3,6.1c-0.2,6.3-3,11.6-5.9,16.9c-6.4,11.6-14.2,22.4-23.2,32.2l-1.2,1.2
		C736.4,710.6,736.4,710.6,732.6,708.4"/>
	<path class="st35" d="M780.8,673.3c-1.9,8.9-1.8,18.7-1.4,28.4c0.1,2.7,0.4,5.4,0.9,8.1c0.8,3.6,0.8,7.4-0.2,11
		c-1,3.8-1.6,7.6-0.5,11.5c0.5,2,0,3.4-2.2,3.9c-0.2,0-0.4,0.2-0.5,0.2c-6.2,2.4-12,7.4-18.4,6.9s-12.2-4.7-18.4-7.1
		c-1.7-0.7-2.9-1.4-2.3-3.3c1.4-4.3,0.3-8.5-0.5-12.7c-0.5-2.4-0.1-4,1.8-5.6c9.9-8.5,17.2-19.1,24.2-29.9
		c3.4-5.2,6.3-10.8,8.4-16.6c0.6-1.8,1.5-2,2.9-1.8C778.6,667.1,780.9,669.3,780.8,673.3"/>
	<path class="st35" d="M655.7,845.1l-191.5,0.2l2.1-15.3h189.4V845.1z M645.1,891.3c0,5-3,10.7-9.1,17c-4.6,5-10,9.1-16.1,12
		l-19.2-21.7c6-0.6,11.7-2.8,16.5-6.4c6-4.3,8.9-9.1,8.9-14.6c0-2.9-1.9-5.4-5.6-7.4c-2.9-1.8-6.2-2.8-9.6-2.8
		c-6.6,0-13.6,3.2-21.1,9.5c-15.2,12.8-22.9,26.9-22.9,42.4v54.2l-24.5-12.8v-94.5h24.7v9.7c3.7-3.7,11.3-7.5,22.8-11.5
		c5.6-2,11.5-2.9,17.4-2.9c12.4,0,22.9,4.7,31.5,14.2C642.9,879.9,645.1,885.5,645.1,891.3"/>
	<path class="st35" d="M770.1,845.1H685v24c0,0,2.6-1.2,2.9-1.3c2.9-1.1,7.3-3.4,16.8-5.1c4.6-0.9,9.2-1.3,13.9-1.3
		c19.2,0,31.5,5.4,36.9,16.1c3.7,7.2,5.5,21.6,5.5,43.3V970c-1.8-0.7-8.6-3.4-20.3-8.3c0-2.7-0.6-4.5-1.7-5.2
		c-4.5,2.6-8.2,4.6-11.1,6c-9.2,4.3-19.9,6.5-32.1,6.5c-16.8,0-29.7-5.3-38.8-15.8c-4.2-4.7-6.6-10.8-6.6-17.1
		c0-7.1,3.5-14.1,10.5-21.1c13.5-13.5,30.4-20.3,50.5-20.3c12.2,0,22,2.8,29.4,8.4v-6.5c0-3.8-1.5-7.5-4.3-10.2
		c-2.3-2.2-4.5-3.8-6.6-4.8c-3.5-1.6-8.4-2.3-14.5-2.2c-12.9,0.1-25.7,2.7-37.7,7.5c-5.1,2.1-10.1,4-14.9,5.7v-9.5
		c1.1-0.9,2.3-1.9,4.9-3.9c0.6-0.4,0.6-0.4,0.6-0.4V845h-26.2v-15h128L770.1,845.1L770.1,845.1z M740.8,926.3
		c0-3.7-4.5-7.1-13.4-10.1c-7.4-2.5-13.6-3.7-18.5-3.7c-18,0-32.4,6.5-43.2,19.4c-2.6,3.1-4.4,5.9-5.4,8.4c-1.3,3.1-0.7,6.8,1.8,9.1
		c3.4,3.1,9.5,4.7,18.2,4.7c15.3,0.1,30.3-4,43.4-11.9C735.1,935.2,740.8,929.9,740.8,926.3"/>
	<path class="st35" d="M898.4,988.9c0,15.8-7.7,23.8-23,23.8c-6.8,0-16.7-3.2-29.6-9.7c-14.3-7.2-26.3-10.7-36-10.7
		c-20.9,0-40.5,8.3-59,24.7c-12.9,11.4-15.8,27.9-20.8,38.6c-0.4-2.1-0.6-4.3-0.5-6.5c0-10.2,3.1-31,9.2-41.1
		c5.5-9.3,13-17.3,21.8-23.5c10-7.1,21.5-10.6,34.4-10.6c8.9,0,16.6,1.5,23.1,4.5c3.5,1.6,10.2,5.8,20.2,12.5
		c8.5,5.8,15,8.7,19.5,8.7c11.2,0,20.2-4.6,26.8-13.9c2.9-4,4.3-7.9,4.3-11.8c0-6.7-2-12.4-6.1-16.9s-9.5-6.8-16.1-6.8
		c-6.1,0-16.2,3.1-30.3,9.3s-24.1,9.3-30.3,9.3c-4.5,0-10-2.3-16.4-6.8c-13.3-9.5-19.9-18.3-19.9-26.5c0-4.5,2.5-8.7,7.5-12.4
		c3.7-3.1,8.2-5.1,13-5.8c0.5-0.1,0.9-0.5,1.1-1l0,0c0.1-0.3,0-0.7-0.2-1l-6-8.4c-3.4-4.6-5.2-10.2-5.2-16c0-19.6,16-29.4,47.9-29.4
		l0,0c1.1-0.3,1.8-1.2,1.9-2.3V845l0,0h-66.1l0,0v-15l0,0h131.5l0,0v15.1l0,0h-45.4l0,0v21.6c0,3.7,1,6.2,3,7.2
		c0.3,0.2,0.7,0.2,1.1,0.1c1.3-0.3,3-1.6,4.9-3.9l4.9-5.8c1.2-1.2,3.3-2,6.2-2.5c0.4-0.1,0.9-0.1,1.3-0.1c5.2,0.2,10,3.3,14.6,9.2
		c2.1,2.4,3.5,5.3,4.3,8.4l-13.4,15.3l0,0c-0.1-3.7-1-7.3-2.4-10.7c-2-4.3-4.5-6.5-7.7-6.5c-1.5,0.1-3,0.7-4.2,1.7
		c-1.6,1.1-2.4,2.2-2.4,3.3c0.1,1.7,0.7,3.2,1.7,4.6c0.2,0.2,0.3,0.5,0.5,0.7c1.3,2.1,2.1,4.4,2.4,6.8c0.2,1.3,0.2,2.6,0.2,3.9
		c0,11.5-4.7,19.3-14.1,23.4c-6.2,2.7-16,4.1-29.4,4.1c-17,0-28.7,3.8-34.9,11.4c-2.5,3-3.7,5.4-3.6,7.3c0.1,2.6,1.4,4.8,3.8,6.7
		c2.2,1.8,4.9,2.8,7.7,2.9c4.9,0,14.2-3.4,28-10.1c16.3-7.9,29.4-12,39.4-12.1c9.1-0.2,16.8,3.9,23,12.1c5,6.6,8.6,14.9,10.9,25
		C897.4,977.6,898.4,984.4,898.4,988.9 M848.7,886.3c0-10.3-5.5-15.5-16.5-15.5c-8.9,0-17.2,3.1-25.2,9.3
		c-8.5,6.6-12.8,14.3-12.8,22.9c0,4.6,1.9,9,5.4,12c3.4,3.2,7.8,5,12.5,5c4.9,0.1,10.3-1.7,16.5-5.2c5.1-2.8,9.7-6.5,13.5-11
		C846.4,899,848.7,892.8,848.7,886.3"/>
	<path class="st35" d="M1039.7,829.9l-0.3,15.3l-107.5-0.1v75.6c0,11.1,1.9,19.1,5.7,24.2c4.3,5.5,11.9,8.6,22.7,9.1
		c6.9,0.3,13.8-1.9,20.7-6.8c6.1-4.3,11.3-9.8,15.2-16.2c4.3-7.2,6.5-14.1,6.5-21v-48.2l26.4,9.2v130.8c0,15.9-7.3,28.9-22,39
		c-13.5,9.3-29.4,14-47.7,13.9c-30.8,0-52.8-8.4-65.8-25.2c-5.3-6.8-7.9-12.6-7.9-17.5c0.1-10.6,6-19.6,17.9-26.8
		c10.5-6.4,21.3-9.6,32.6-9.6l16.2,21.7c-14.6,1-27.8,4.1-39.3,9.3c-7.6,3.4-11.4,7.8-11.4,13.2c0.9,7.7,6.8,14.6,17.5,20.6
		c6.4,3.6,14.6,5.4,24.8,5.4c23.3,0,40.8-7.5,52.6-22.6c5.6-7.1,8.5-16,8.4-25v-52c-5.5,9-20.3,13.5-44.3,13.5
		c-20.2,0-35.5-6.9-45.9-20.7c-5.1-6.6-7.8-14.7-7.7-23v-70.9H889V830L1039.7,829.9L1039.7,829.9z"/>
	<path class="st35" d="M1162.7,845.3h-81.1v22.9c0.8-0.2,2.3-1,3-1.3c4.6-1.7,6.9-2.4,16.7-4.2c4.6-0.9,9.2-1.3,13.9-1.3
		c19.2,0,31.5,5.4,36.9,16.1c3.7,7.2,5.5,21.6,5.5,43.3V970c-1.8-0.7-8.6-3.4-20.3-8.3c0-2.7-0.6-4.5-1.7-5.2
		c-4.5,2.6-8.2,4.6-11.1,6c-9.2,4.3-19.9,6.5-32.1,6.5c-16.8,0-29.7-5.3-38.8-15.8c-4.2-4.7-6.6-10.8-6.6-17.1
		c0-7.1,3.5-14.1,10.5-21.1c13.5-13.5,30.4-20.3,50.5-20.3c12.2,0,22,2.8,29.4,8.4v-6.5c0-3.8-1.5-7.4-4.2-10.1
		c-2.3-2.2-4.5-3.8-6.7-4.8c-3.5-1.6-8.4-2.3-14.5-2.2c-12.9,0.1-25.7,2.7-37.7,7.5c-5.1,2.1-10.1,4-14.9,5.7v-9.5
		c1.1-0.9,2.7-2.3,4.9-4.2l0.6-0.5v-33.4h-26.2v-15.3h108.7C1155.9,829.9,1162.7,836.8,1162.7,845.3L1162.7,845.3z M1137.5,926.3
		c0-3.7-4.5-7.1-13.4-10.1c-7.4-2.5-13.6-3.7-18.5-3.7c-18,0-32.4,6.5-43.2,19.4c-2.4,2.9-4.1,5.5-5.2,7.8
		c-1.6,3.5-0.8,7.7,2.2,10.1c3.5,2.8,9.4,4.2,17.6,4.2c15.3,0.1,30.3-4,43.4-11.9C1131.8,935.2,1137.5,929.9,1137.5,926.3"/>
	<path class="st35" d="M525.1,894.1c0,10.8-3.3,21.1-9.8,30.8c-6.1,9.1-14.3,16.6-23.8,22c-9.9,5.7-19,8.5-27.4,8.5
		c-8.2,0-18.4-4.6-30.6-13.8c-5.9-4.4-14.6-12.1-26-22.9V1024l-23.7-12.4V853c0-12.8,10.3-23.1,23.1-23.1v42.2l9-9.5
		c20.8-21.8,37.7-32.7,50.6-32.7c14,0,27.4,7.2,40.1,21.7C518.9,865.8,525.1,879.9,525.1,894.1 M510.5,877c0-7.5-3.9-14.7-11.7-21.6
		c-3.8-3.5-8.7-5.2-14.6-5.2c-11.6,0-26.1,7.1-43.3,21.2c-17.7,14.5-26.6,27.4-26.6,38.6c0,6.6,6.2,12.4,18.5,17.5
		c5.1,2.2,10.6,3.3,16.1,3.4c17.2,0,32-6.6,44.7-19.8C504.8,899.2,510.5,887.8,510.5,877"/>
</g>
</svg>
